<?xml version="1.0" standalone="no"?>
<!DOCTYPE svg PUBLIC "-//W3C//DTD SVG 20010904//EN"
 "http://www.w3.org/TR/2001/REC-SVG-20010904/DTD/svg10.dtd">
<svg version="1.0" xmlns="http://www.w3.org/2000/svg"
 width="562.000000pt" height="428.000000pt" viewBox="0 0 562.000000 428.000000"
 preserveAspectRatio="xMidYMid meet">

<g transform="translate(0.000000,428.000000) scale(0.100000,-0.100000)"
fill="#000000" stroke="none">
<path d="M2570 3554 c-151 -29 -202 -41 -305 -76 -123 -40 -284 -116 -365
-171 -103 -70 -327 -282 -375 -355 -37 -56 -47 -98 -29 -117 9 -8 20 -15 26
-15 22 0 85 81 137 176 30 55 67 119 84 142 30 45 108 102 138 102 10 0 21 5
25 11 4 8 -3 9 -25 4 -17 -4 -31 -4 -31 -2 0 3 28 23 63 45 264 167 619 266
887 247 218 -15 333 -43 498 -120 233 -110 391 -234 567 -446 40 -48 128 -193
161 -266 19 -42 37 -73 40 -70 3 3 -12 43 -33 89 -155 328 -449 598 -810 742
-144 57 -251 76 -453 81 -96 2 -186 2 -200 -1z m-879 -471 c-15 -27 -45 -78
-65 -115 -46 -84 -82 -128 -107 -128 -28 0 -24 38 9 91 32 49 169 199 183 199
5 0 -4 -21 -20 -47z"/>
<path d="M2735 3475 c-33 -7 -91 -16 -130 -20 -38 -4 -106 -17 -150 -30 -61
-18 -101 -23 -170 -22 -97 2 -90 4 -255 -83 -80 -42 -74 -39 -68 -45 3 -3 41
13 84 36 152 81 145 79 252 79 79 0 113 5 172 25 40 14 96 25 124 25 28 1 78
7 111 15 77 19 137 19 181 0 34 -14 35 -15 20 -37 -9 -12 -28 -24 -43 -26 -57
-7 -143 -82 -143 -123 0 -20 29 -42 70 -54 36 -11 59 -34 86 -87 24 -48 41
-65 52 -53 3 3 0 10 -8 15 -7 5 -25 32 -40 62 -23 47 -32 55 -81 75 -36 14
-55 28 -57 41 -6 38 78 112 126 112 15 0 21 -10 26 -41 9 -59 23 -81 49 -77
17 2 22 9 20 32 -2 25 -10 41 -48 92 -15 21 10 38 50 36 24 -2 37 2 41 12 10
27 -4 35 -41 25 -26 -7 -42 -6 -63 5 -43 22 -100 26 -167 11z m260 -35 c-3 -5
-13 -10 -21 -10 -8 0 -12 5 -9 10 3 6 13 10 21 10 8 0 12 -4 9 -10z m-45 -142
c0 -22 -26 -24 -34 -2 -3 9 -6 28 -6 42 l0 27 20 -25 c11 -14 20 -33 20 -42z"/>
<path d="M2796 3155 c-8 -23 -9 -20 24 -59 17 -18 28 -40 25 -48 -3 -8 -26
-27 -51 -43 -30 -19 -54 -45 -69 -76 l-24 -46 -45 10 c-39 9 -50 7 -93 -14
-33 -16 -54 -36 -68 -61 -18 -35 -19 -40 -5 -65 9 -16 31 -37 50 -48 18 -11
51 -36 72 -56 31 -30 38 -44 38 -73 0 -21 -5 -47 -11 -59 -23 -46 -83 -96
-138 -117 -145 -55 -171 -78 -157 -136 9 -36 71 -94 99 -94 18 1 14 5 -16 21
-44 23 -79 75 -71 104 10 34 36 51 119 80 199 71 253 244 100 322 -48 24 -75
54 -75 83 0 56 58 100 132 100 50 0 58 -5 78 -45 18 -34 47 -44 57 -19 4 12
-2 25 -20 40 -15 13 -27 29 -27 36 0 23 34 64 91 110 72 59 84 53 94 -42 7
-66 5 -73 -19 -105 -15 -19 -38 -40 -53 -47 -35 -17 -55 -55 -42 -80 19 -36
59 -14 59 33 0 30 13 43 54 53 42 10 86 58 86 94 0 16 -13 47 -30 70 -36 51
-37 55 -4 77 47 31 64 54 63 88 l-1 32 -8 -35 c-5 -20 -22 -46 -42 -62 -65
-54 -84 -48 -115 37 -19 51 -45 69 -57 40z m38 -21 c11 -27 7 -37 -9 -24 -16
14 -20 40 -6 40 5 0 12 -7 15 -16z m117 -165 c31 -44 29 -86 -5 -116 -25 -21
-56 -31 -56 -18 0 3 10 19 21 35 22 28 22 42 3 108 -9 32 11 27 37 -9z m-201
-146 c0 -13 -3 -13 -15 -3 -8 7 -15 19 -15 27 0 13 3 13 15 3 8 -7 15 -19 15
-27z m84 -60 c-9 -37 -14 -44 -25 -38 -13 9 -11 39 3 53 20 20 29 14 22 -15z"/>
<path d="M4437 2780 c-55 -35 -63 -35 -152 -15 -100 24 -114 6 -34 -44 50 -31
51 -32 34 -51 -10 -11 -14 -20 -8 -20 17 0 48 41 37 48 -6 4 -27 18 -48 31
-20 13 -35 25 -33 27 2 3 28 -1 57 -7 66 -14 122 -7 156 20 27 21 54 28 54 13
0 -5 -20 -27 -44 -49 -42 -39 -43 -40 -51 -124 l-8 -84 -16 54 -16 54 -90 1
c-71 1 -90 -2 -90 -13 0 -8 6 -16 14 -19 8 -3 11 0 7 7 -5 8 9 11 51 9 32 -2
68 1 79 5 20 7 22 3 28 -36 4 -25 13 -52 20 -62 13 -18 14 -18 23 1 6 10 13
52 16 93 3 57 9 78 23 88 44 31 75 67 72 82 -5 26 -30 23 -81 -9z"/>
<path d="M3991 2684 c-1 -6 15 -47 34 -91 19 -45 35 -90 35 -102 0 -22 -115
-121 -319 -273 -308 -231 -342 -251 -427 -259 -39 -4 -81 -13 -92 -20 -18 -11
-27 -10 -56 4 -20 9 -36 13 -36 8 0 -4 12 -13 27 -20 27 -12 27 -13 8 -28 -39
-29 -115 -63 -141 -63 -22 0 -25 4 -21 21 13 48 -25 68 -45 24 -8 -18 -8 -28
1 -38 25 -31 -86 -72 -123 -44 -17 13 -17 15 -2 45 20 38 20 65 1 101 -17 34
-40 45 -65 31 -32 -17 -35 -65 -7 -122 l25 -51 -21 -18 c-21 -17 -78 -39 -103
-39 -6 0 -23 9 -38 21 -51 40 -23 97 69 144 25 13 33 55 10 55 -8 0 -18 -7
-22 -16 -3 -8 -12 -13 -20 -9 -11 4 -13 1 -8 -12 4 -13 -4 -27 -31 -49 -47
-40 -50 -86 -9 -121 38 -33 90 -30 149 7 37 24 51 28 66 20 37 -20 125 -2 145
30 3 4 14 6 24 3 28 -7 87 14 150 54 46 29 58 33 78 24 12 -6 23 -14 23 -18 0
-5 -23 -21 -52 -38 -28 -16 -63 -37 -77 -45 -110 -64 -232 -145 -223 -148 6
-2 23 4 39 14 l28 16 -25 -20 c-19 -16 -34 -19 -75 -15 -45 5 -54 2 -83 -22
-42 -35 -116 -58 -165 -49 -25 4 -47 17 -70 42 -17 20 -58 63 -89 97 -33 35
-54 65 -49 71 18 20 -12 76 -85 153 -77 82 -85 102 -49 131 19 16 74 -9 109
-50 26 -32 28 -32 44 -15 9 10 11 14 4 10 -9 -4 -25 4 -45 23 -60 56 -105 67
-130 32 -14 -21 -15 -21 -45 10 -17 16 -39 30 -50 30 -33 0 -70 38 -87 89 -23
70 -54 94 -102 77 -31 -10 -72 -82 -80 -141 -5 -38 -15 -59 -45 -91 -21 -23
-46 -65 -56 -94 -17 -49 -19 -51 -35 -36 -9 9 -22 36 -28 59 -54 202 -59 211
-100 202 -26 -6 -28 -3 -43 49 -19 65 -39 80 -99 71 -37 -6 -45 -3 -66 19
l-24 26 19 35 c17 32 17 38 4 62 -17 30 -29 36 -49 24 -16 -10 -17 -71 -2 -99
6 -12 5 -23 -5 -37 -32 -43 -8 -84 59 -101 38 -9 55 -46 37 -79 -17 -32 -124
-135 -140 -135 -9 0 -11 34 -9 126 4 111 2 128 -13 138 -32 20 -43 -7 -43
-107 0 -75 4 -99 22 -132 12 -22 29 -57 37 -77 13 -32 20 -38 46 -38 50 0 57
-31 31 -132 -34 -134 -25 -214 38 -338 52 -102 157 -245 248 -339 12 -13 20
-27 17 -32 -3 -5 2 -9 10 -9 8 0 46 -27 83 -60 378 -336 899 -435 1413 -269
75 25 234 99 294 137 243 156 445 388 537 619 94 235 127 596 79 858 -11 61
-20 113 -20 117 0 4 12 19 27 33 15 14 23 25 17 25 -7 0 -17 -7 -24 -15 -18
-22 -30 -18 -41 14 -16 45 -77 167 -78 155z m106 -324 c24 -115 24 -420 0
-565 -39 -226 -123 -424 -245 -575 -181 -224 -423 -393 -680 -474 -169 -53
-232 -61 -467 -61 -204 1 -227 2 -320 27 -191 49 -330 115 -494 233 -81 58
-141 111 -141 125 0 4 21 13 46 19 104 26 437 178 654 297 159 88 242 135 356
205 37 22 69 36 81 33 10 -3 35 6 57 21 25 17 55 27 87 29 47 4 171 57 148 65
-6 2 -29 -6 -50 -18 -33 -19 -39 -20 -39 -7 0 18 -8 20 -29 7 -7 -5 -10 -14
-7 -20 5 -7 -7 -11 -36 -11 -50 0 -59 -8 119 104 68 42 129 76 137 76 7 0 33
-16 57 -35 24 -19 56 -37 71 -40 37 -9 94 9 159 48 40 24 65 33 86 30 34 -5
64 20 45 39 -8 8 -21 8 -49 -1 -34 -11 -49 -9 -141 17 l-104 29 94 63 c152
103 465 341 548 417 13 12 28 19 31 15 4 -4 16 -45 26 -92z m-2689 57 c2 -16
-2 -35 -9 -44 -12 -13 -14 -13 -20 4 -4 10 -8 31 -8 46 -1 39 33 33 37 -6z
m90 -142 l57 0 18 -55 c20 -61 33 -73 58 -59 10 5 20 9 23 9 7 0 36 -94 51
-165 15 -68 39 -115 60 -115 7 0 16 -12 20 -27 15 -60 75 -89 75 -36 0 29 -25
63 -47 63 -35 0 -5 87 53 152 23 26 35 51 40 85 11 80 53 142 96 143 22 0 54
-42 62 -83 8 -44 37 -74 84 -87 56 -15 83 -48 89 -111 5 -60 13 -78 59 -135
25 -30 31 -43 22 -52 -13 -13 -54 5 -80 37 -10 12 -25 21 -33 21 -24 0 -17
-25 11 -40 14 -8 34 -30 44 -50 39 -76 147 -150 215 -149 25 0 23 2 -15 13
-60 16 -109 47 -154 96 -39 43 -47 67 -18 55 9 -4 36 -10 59 -12 35 -5 51 -15
95 -62 30 -31 62 -67 73 -81 53 -67 116 -86 203 -61 17 5 32 8 32 6 0 -15
-505 -283 -714 -379 -88 -41 -276 -106 -305 -106 -22 0 -144 138 -215 243
-125 187 -154 302 -110 451 22 76 19 123 -10 141 -13 8 -30 13 -39 9 -10 -3
-20 2 -26 15 -15 27 -14 51 2 51 8 0 44 31 80 69 53 55 67 75 67 100 0 35 -30
71 -59 71 -10 0 -29 8 -42 19 -21 17 -22 21 -11 46 l13 28 30 -29 c26 -25 39
-29 87 -29z m-194 -66 c0 -24 -4 -71 -8 -104 -7 -53 -10 -57 -18 -35 -12 32
-16 161 -5 178 16 25 32 5 31 -39z m1092 -384 c10 -40 -9 -50 -37 -19 -13 14
-32 35 -42 46 -38 41 -67 92 -67 117 1 24 7 20 70 -46 38 -40 72 -84 76 -98z
m414 133 c22 -24 27 -77 10 -109 -15 -27 -27 -24 -45 11 -17 34 -19 73 -5 101
13 24 15 24 40 -3z m-100 -12 c0 -3 -4 -8 -10 -11 -5 -3 -10 -1 -10 4 0 6 5
11 10 11 6 0 10 -2 10 -4z m630 -5 c0 -4 -15 -16 -33 -26 -29 -15 -37 -16 -58
-4 l-24 13 38 11 c49 14 77 16 77 6z m140 -21 c107 -30 110 -31 110 -39 0 -14
-126 -71 -158 -71 -39 0 -64 12 -109 51 l-32 27 37 25 c46 32 58 32 152 7z
m195 -30 c-3 -5 -13 -6 -21 -3 -12 4 -13 8 -3 14 15 9 32 2 24 -11z m-685 -14
c0 -8 -4 -18 -10 -21 -5 -3 -10 3 -10 14 0 12 5 21 10 21 6 0 10 -6 10 -14z
m-1150 -29 c8 -14 11 -29 7 -33 -11 -11 -47 26 -47 48 0 26 21 18 40 -15z
m1000 -215 c0 -5 -19 -18 -42 -30 l-43 -22 35 30 c34 30 50 37 50 22z"/>
<path d="M3446 1751 c-3 -5 3 -20 14 -34 28 -35 26 -82 -5 -112 -45 -46 -122
-26 -138 35 -15 59 -23 58 -92 -14 -52 -54 -69 -66 -86 -61 -42 14 -68 -3 -96
-61 -27 -57 -58 -87 -131 -123 -63 -32 -82 -55 -82 -100 0 -32 8 -49 45 -92
25 -29 45 -60 45 -70 0 -21 38 -69 54 -69 7 0 25 9 39 20 15 12 49 27 76 36
37 10 58 25 81 54 18 23 45 47 61 55 40 21 108 19 153 -6 21 -11 57 -24 80
-28 40 -6 41 -7 38 -43 -3 -30 0 -37 18 -43 41 -13 68 38 34 66 -15 12 -14 15
9 34 39 31 136 176 143 212 12 65 -18 111 -181 277 -12 12 -28 33 -38 49 -18
28 -32 34 -41 18z m152 -164 c86 -92 98 -115 89 -177 -5 -40 -71 -142 -126
-194 -27 -26 -35 -28 -76 -23 -25 4 -62 15 -83 26 -96 48 -170 35 -234 -41
-31 -36 -52 -51 -84 -59 -24 -6 -58 -22 -75 -35 -30 -22 -34 -22 -50 -8 -9 8
-20 27 -24 41 -3 14 -26 50 -51 80 -28 35 -44 65 -44 82 0 33 37 70 105 104
60 30 88 58 109 112 22 52 40 65 82 58 32 -5 39 -2 91 56 31 33 60 61 65 61 4
0 8 -11 8 -25 0 -42 41 -75 93 -75 56 0 94 28 103 76 3 19 9 34 13 32 4 -2 43
-42 89 -91z m-48 -442 c15 -18 5 -35 -21 -35 -12 0 -19 7 -19 18 0 33 20 42
40 17z"/>
<path d="M4188 2584 c-37 -20 -35 -26 6 -19 29 6 35 4 41 -14 9 -29 32 -26 37
3 9 45 -31 59 -84 30z m72 -20 c0 -8 -4 -12 -10 -9 -5 3 -10 10 -10 16 0 5 5
9 10 9 6 0 10 -7 10 -16z"/>
<path d="M2482 2120 c0 -14 2 -19 5 -12 2 6 2 18 0 25 -3 6 -5 1 -5 -13z"/>
<path d="M1306 1420 c-39 -98 -9 -242 65 -304 59 -50 156 -72 253 -60 61 8 61
9 -49 14 -147 8 -203 37 -250 130 -25 48 -30 144 -11 205 19 61 14 70 -8 15z"/>
</g>
</svg>
